<svg xmlns="http://www.w3.org/2000/svg" viewBox="0 0 289.33331 436.8096" height="436.8096" width="289.33331" xml:space="preserve" id="svg2" version="1.1"><defs id="defs6"><clipPath id="clipPath16" clipPathUnits="userSpaceOnUse"><path id="path14" d="M 0,560 H 960 V 0 H 0 Z"></path></clipPath></defs><g transform="matrix(1.3333333,0,0,-1.3333333,-495.33332,591.73812)" id="g8"><g id="g10"><g clip-path="url(#clipPath16)" id="g12"><g transform="translate(456.61,156.4864)" id="g18"><path id="path20" style="fill:#0a224e;fill-opacity:1;fill-rule:nonzero;stroke:none" d="M 0,0 C -5.563,-0.737 -12.364,3.385 -12.364,3.385 -35.942,16.15 -51.957,41.104 -51.957,69.8 c 0,22.561 22.11,66.353 42.396,101.789 C -53.327,157.607 -85.11,116.554 -85.11,68.21 c 0,-59.827 48.673,-108.5 108.5,-108.5 59.827,0 108.5,48.673 108.5,108.5 0,48.227 -31.63,89.197 -75.232,103.276 C 76.928,136.068 98.995,92.339 98.995,69.8 98.995,41.142 83.022,16.214 59.494,3.433 c 0,0 -6.77,-4.359 -12.353,-3.431 -8.939,1.486 -8.95,10.13 -8.95,10.13 0,0 0.524,0.478 1.209,0.937 3.119,1.816 4.139,5.457 1.985,8.266 -0.715,0.931 -1.728,1.634 -2.868,2.683 0.585,2.001 1.098,4.274 1.91,6.435 1.968,5.241 6.814,9.989 13.402,9.408 2.548,-0.225 4.623,-1.401 6.093,-3.458 2.652,-3.712 2.743,-7.924 2.148,-12.23 -0.117,-0.852 -0.277,-1.699 -0.454,-2.768 1.039,0.628 1.871,1.124 2.696,1.632 4.399,2.706 8.435,5.808 11.382,10.156 1.87,2.759 3.333,5.685 4.015,8.961 0.278,1.334 0.639,2.671 0.683,4.034 0.016,0.493 0.035,1.509 0.022,2.003 -0.065,2.494 -0.634,5.046 -1.24,7.514 -0.677,2.754 -2.139,5.242 -3.92,7.488 -2.073,2.614 -4.476,4.784 -7.553,6.165 -2.416,1.084 -4.897,2.031 -7.563,1.937 -2.643,-0.094 -5.347,-0.219 -7.891,-0.859 -2.398,-0.603 -4.674,-1.913 -7.036,-2.928 0,0 -0.032,0.143 -0.059,0.319 -0.183,1.167 -0.287,2.35 -0.535,3.502 -0.934,4.349 -2.547,8.468 -4.842,12.252 -3.186,5.256 -6.584,10.383 -9.91,15.553 -2.691,4.183 -5.288,8.406 -6.294,13.38 l -0.004,0.005 C 22.561,105.545 19.964,101.322 17.273,97.138 13.947,91.968 10.549,86.841 7.363,81.586 5.069,77.801 3.455,73.682 2.522,69.333 2.274,68.18 2.17,66.997 1.987,65.831 1.96,65.655 1.927,65.512 1.927,65.512 c -2.361,1.015 -4.637,2.325 -7.035,2.927 -2.544,0.64 -5.248,0.766 -7.891,0.859 -2.666,0.095 -5.147,-0.853 -7.563,-1.937 -3.077,-1.381 -5.48,-3.551 -7.553,-6.165 -1.781,-2.246 -3.243,-4.734 -3.92,-7.488 -0.606,-2.468 -1.175,-5.02 -1.24,-7.514 -0.013,-0.494 0.006,-1.51 0.022,-2.003 0.044,-1.364 0.405,-2.7 0.683,-4.034 0.683,-3.276 2.146,-6.202 4.016,-8.961 2.947,-4.348 6.983,-7.45 11.382,-10.156 0.825,-0.507 1.657,-1.003 2.696,-1.632 -0.177,1.07 -0.336,1.916 -0.454,2.768 -0.595,4.307 -0.504,8.519 2.148,12.23 1.47,2.057 3.544,3.233 6.093,3.458 6.587,0.582 11.434,-4.166 13.402,-9.407 0.811,-2.161 1.325,-4.434 1.91,-6.434 C 7.483,20.973 6.47,20.27 5.755,19.339 3.601,16.529 4.621,12.889 7.74,11.073 8.425,10.615 8.949,10.136 8.949,10.136 8.949,10.136 8.903,1.18 0,0"></path></g><g transform="translate(465.7264,359.4456)" id="g22"><path id="path24" style="fill:#0a224e;fill-opacity:1;fill-rule:nonzero;stroke:none" d="m 0,0 c 8.501,13.77 14.403,22.699 14.403,22.699 0,0 5.911,-8.942 14.422,-22.731 17.22,-1.847 33.482,-6.934 48.169,-14.637 -29.849,52.322 -62.721,99.027 -62.721,99.027 0,0 -32.871,-46.705 -62.72,-99.027 C -33.681,-6.925 -17.323,-1.822 0,0"></path></g></g></g></g></svg>
